<svg preserveAspectRatio="none" overflow="visible" style="display: block;" width="31.8337" height="34.333" viewBox="0 0 31.8337 34.333" fill="none" xmlns="http://www.w3.org/2000/svg">
<g id="Vector">
<path d="M4.16667 30.5V3.83301C4.16675 2.81647 4.5709 1.84186 5.28971 1.12305C6.00853 0.40424 6.98313 9.04529e-05 7.99967 4.21252e-06H21.3337C21.9268 -0.000807687 22.5142 0.115749 23.0622 0.342778C23.6103 0.569873 24.1082 0.903036 24.527 1.32325L30.5055 7.30176C30.9271 7.72084 31.2621 8.21953 31.4899 8.76856C31.7176 9.31733 31.8345 9.90586 31.8337 10.5V30.5C31.8337 31.5167 31.4295 32.4921 30.7106 33.2109C29.9917 33.9297 29.0163 34.333 27.9997 34.333H7.99967C6.98328 34.3329 6.00849 33.9296 5.28971 33.2109C4.57082 32.4921 4.16667 31.5167 4.16667 30.5ZM5.16667 30.5C5.16667 31.2515 5.46539 31.9726 5.99674 32.5039C6.52799 33.035 7.2485 33.3329 7.99967 33.333H27.9997C28.751 33.333 29.4722 33.0352 30.0036 32.5039C30.5349 31.9726 30.8337 31.2515 30.8337 30.5V10.499C30.8344 10.0369 30.7432 9.57921 30.5661 9.15235C30.3889 8.72534 30.1283 8.33766 29.8005 8.01172L29.7995 8.00977L23.819 2.0293C23.4932 1.70238 23.1058 1.44327 22.6794 1.26661C22.3064 1.11208 21.9099 1.02321 21.5075 1.00391L21.3337 1H7.99967C7.24835 1.00009 6.52802 1.29881 5.99674 1.83008C5.46547 2.36136 5.16675 3.08168 5.16667 3.83301V30.5Z" fill="#E5E5E5"/>
<path d="M20.8333 8.83302V0.500009C20.8333 0.223867 21.0575 4.21252e-06 21.3337 4.21252e-06C21.6098 4.21252e-06 21.8333 0.223867 21.8333 0.500009V8.83302C21.8333 9.14244 21.9563 9.43942 22.1751 9.65821C22.3939 9.87701 22.6909 10 23.0003 10H31.3333C31.6095 10 31.8337 10.2239 31.8337 10.5C31.8337 10.7761 31.6095 11 31.3333 11H23.0003C22.4257 11 21.8744 10.7716 21.4681 10.3652C21.0618 9.95892 20.8333 9.40765 20.8333 8.83302Z" fill="#E5E5E5"/>
<path d="M0 17.1667C0 16.0621 0.895431 15.1667 2 15.1667H22C23.1046 15.1667 24 16.0621 24 17.1667V27.1667C24 28.2713 23.1046 29.1667 22 29.1667H2C0.89543 29.1667 0 28.2713 0 27.1667V17.1667Z" fill="#E7000B"/>
<path d="M2.79901 26.1667V18.8939H5.39134C5.95715 18.8939 6.4259 18.9969 6.79759 19.2029C7.16927 19.4089 7.44744 19.6906 7.6321 20.0481C7.81676 20.4032 7.90909 20.8033 7.90909 21.2484C7.90909 21.6958 7.81558 22.0983 7.62855 22.4557C7.44389 22.8109 7.16454 23.0926 6.79048 23.3009C6.4188 23.5069 5.95123 23.6099 5.38778 23.6099H3.60511V22.6795H5.28835C5.64583 22.6795 5.93584 22.6179 6.15838 22.4948C6.38092 22.3693 6.54427 22.1989 6.64844 21.9834C6.7526 21.768 6.80469 21.523 6.80469 21.2484C6.80469 20.9737 6.7526 20.7299 6.64844 20.5168C6.54427 20.3037 6.37973 20.1368 6.15483 20.0161C5.93229 19.8954 5.63873 19.835 5.27415 19.835H3.89631V26.1667H2.79901ZM9.19549 26.1667V18.8939H11.7878C12.3536 18.8939 12.8224 18.9969 13.1941 19.2029C13.5658 19.4089 13.8439 19.6906 14.0286 20.0481C14.2132 20.4032 14.3056 20.8033 14.3056 21.2484C14.3056 21.6958 14.2121 22.0983 14.025 22.4557C13.8404 22.8109 13.561 23.0926 13.187 23.3009C12.8153 23.5069 12.3477 23.6099 11.7843 23.6099H10.0016V22.6795H11.6848C12.0423 22.6795 12.3323 22.6179 12.5549 22.4948C12.7774 22.3693 12.9408 22.1989 13.0449 21.9834C13.1491 21.768 13.2012 21.523 13.2012 21.2484C13.2012 20.9737 13.1491 20.7299 13.0449 20.5168C12.9408 20.3037 12.7762 20.1368 12.5513 20.0161C12.3288 19.8954 12.0352 19.835 11.6706 19.835H10.2928V26.1667H9.19549ZM15.2333 19.8386V18.8939H20.8619V19.8386H18.5927V26.1667H17.4989V19.8386H15.2333Z" fill="white"/>
</g>
</svg>
